<svg xmlns="http://www.w3.org/2000/svg" version="1.1" xmlns:xlink="http://www.w3.org/1999/xlink" xmlns:svgjs="http://svgjs.dev/svgjs" width="1000" height="1000" viewBox="0 0 1000 1000"><rect width="1000" height="1000" fill="#ffffff"></rect><g transform="matrix(0.7,0,0,0.7,150,106.25)"><svg viewBox="0 0 320 360" data-background-color="#ffbe79" preserveAspectRatio="xMidYMid meet" height="1125" width="1000" xmlns="http://www.w3.org/2000/svg" xmlns:xlink="http://www.w3.org/1999/xlink"><g id="tight-bounds" transform="matrix(1,0,0,1,0,0)"><svg viewBox="0 0 320 360" height="360" width="320"><g><svg></svg></g><g><svg viewBox="0 0 320 360" height="360" width="320"><g><path xmlns="http://www.w3.org/2000/svg" d="M159.823 340.15v0c-7.794 0-14.524-4.96-16.65-12.399-1.063-3.897-5.314-6.022-8.856-4.96-1.417 0.354-2.834 1.417-3.897 2.834-5.668 7.794-16.296 9.919-24.444 4.251-4.96-3.188-7.794-8.856-7.439-14.878 0-3.897-3.188-7.439-7.085-7.44-1.771 0-3.188 0.354-4.605 1.417-7.794 5.668-18.775 4.251-24.444-3.542-3.543-4.605-4.605-10.628-2.479-16.296 1.417-3.897-0.709-7.794-4.606-9.21-1.417-0.354-3.188-0.354-4.605 0-9.211 3.188-19.13-1.771-22.318-10.982-1.771-5.314-1.063-11.69 2.48-16.296 2.48-3.188 1.771-7.794-1.417-9.919-1.417-1.063-2.834-1.417-4.605-1.417-9.565 0.354-17.713-7.439-17.713-17.004 0-6.022 2.834-11.336 7.439-14.879 3.188-2.126 3.897-6.731 1.771-9.919-1.063-1.417-2.126-2.126-3.896-2.834-9.211-2.834-14.524-12.753-11.691-21.963 1.771-5.668 6.022-9.919 11.691-11.691 3.897-1.063 6.022-5.314 4.959-8.856-0.354-1.417-1.417-2.834-2.834-3.897-7.794-5.668-9.919-16.296-4.251-24.443 3.188-4.96 8.856-7.794 14.879-7.44 3.897 0 7.439-3.188 7.439-7.085 0-1.771-0.354-3.188-1.417-4.605-5.668-7.794-4.251-18.775 3.543-24.443 4.605-3.543 10.628-4.605 16.295-2.48 3.897 1.417 7.794-0.709 9.211-4.605 0.354-1.417 0.354-3.188 0-4.606-3.188-9.211 1.771-19.13 10.982-22.318 5.314-1.771 11.69-1.063 16.295 2.48 3.188 2.48 7.794 1.771 9.919-1.417 1.063-1.417 1.417-2.834 1.417-4.605-0.354-9.565 7.439-17.713 17.005-17.713 6.022 0 11.336 2.834 14.878 7.439 2.126 3.188 6.731 3.897 9.919 1.772 1.417-1.063 2.126-2.126 2.834-3.897 2.834-9.211 12.753-14.524 21.964-11.69 5.668 1.771 9.919 6.022 11.69 11.69v0c0.709 2.48 2.834 4.605 5.668 4.96 2.834 0.354 5.314-0.709 7.085-2.835 5.668-7.794 16.296-9.919 24.444-4.251 4.96 3.188 7.794 8.856 7.439 14.879 0 3.897 3.188 7.439 7.085 7.439 1.771 0 3.188-0.354 4.605-1.417 7.794-5.668 18.775-4.251 24.444 3.543 3.543 4.605 4.605 10.628 2.48 16.296-1.417 3.897 0.709 7.794 4.605 9.21 1.417 0.354 3.188 0.354 4.605 0 9.211-3.188 19.13 1.771 22.318 10.982 1.771 5.314 1.063 11.69-2.48 16.296-2.48 3.188-1.771 7.794 1.417 9.919 1.417 1.063 2.834 1.417 4.606 1.417 9.565-0.354 17.713 7.439 17.712 17.004 0 6.022-2.834 11.336-7.439 14.878-2.48 1.417-3.543 4.251-3.188 7.085 0.354 2.834 2.48 4.96 4.959 5.669 9.211 2.834 14.524 12.753 11.691 21.963-1.771 5.668-6.022 9.919-11.691 11.691-3.897 1.063-6.022 5.314-4.959 8.856 0.354 1.417 1.417 2.834 2.834 3.897 7.794 5.668 9.919 16.296 4.251 24.443-3.188 4.96-8.856 7.794-14.879 7.439-2.834 0-5.314 1.417-6.731 3.897-1.417 2.48-1.063 5.314 0.709 7.794 5.668 7.794 4.251 18.775-3.543 24.443-4.605 3.543-10.628 4.605-16.295 2.48-3.897-1.417-7.794 0.709-9.211 4.605-0.354 1.417-0.354 3.188 0 4.606 3.188 9.211-1.771 19.13-10.982 22.317-5.314 1.771-11.69 1.063-16.295-2.479-3.188-2.48-7.794-1.771-9.919 1.417-1.063 1.417-1.417 2.834-1.417 4.605 0.354 9.565-7.439 17.713-17.005 17.713-6.022 0-11.336-2.834-14.878-7.44-1.417-2.126-4.251-3.543-7.085-2.834-2.834 0.354-4.96 2.48-5.668 4.96-2.126 7.439-8.856 12.399-16.65 12.399zM136.088 312.518c1.063 0 1.771 0 2.834 0.354 6.731 1.063 12.045 5.668 13.816 12.045 1.063 3.897 5.314 6.022 8.856 4.605 2.126-0.709 3.897-2.48 4.605-4.605 2.834-9.211 12.753-14.524 21.964-11.691 3.543 1.063 7.085 3.543 9.211 6.731 2.48 3.188 6.731 3.897 10.273 1.417 1.771-1.417 2.834-3.543 2.834-5.668-0.354-9.565 7.439-17.713 17.004-17.712 3.897 0 7.794 1.063 10.982 3.542 3.188 2.48 7.794 1.771 9.919-1.417 1.417-1.771 1.771-4.605 1.063-6.731-3.188-9.211 1.417-19.13 10.627-22.318 3.897-1.417 7.794-1.417 11.691 0 3.897 1.417 7.794-0.709 9.21-4.605 0.709-2.126 0.354-4.96-1.062-6.731-5.668-7.794-4.251-18.775 3.542-24.443 3.188-2.48 7.085-3.543 10.982-3.543 3.897 0 7.085-3.188 7.439-7.085 0-2.48-1.063-4.605-3.188-6.022-7.794-5.668-9.919-16.296-4.251-24.443 2.126-3.188 5.314-5.668 9.211-6.731 3.897-1.063 6.022-5.314 4.605-8.857-0.709-2.126-2.48-3.897-4.605-4.605-9.211-2.834-14.524-12.753-11.691-21.964 1.063-3.543 3.543-7.085 6.731-9.21 3.188-2.48 3.897-7.085 1.417-10.273-1.417-1.771-3.543-2.834-5.668-2.834-9.565 0.354-17.713-7.439-17.713-17.005 0-3.897 1.063-7.794 3.543-10.981 2.48-3.188 1.771-7.794-1.417-9.92-1.771-1.417-4.605-1.771-6.731-1.062-9.211 3.188-19.13-1.417-22.318-10.628-1.417-3.897-1.417-7.794 0-11.69 1.417-3.897-0.709-7.794-4.605-9.211-2.126-0.709-4.96-0.354-6.731 1.063-7.794 5.668-18.775 4.251-24.443-3.543-2.48-3.188-3.543-7.085-3.543-10.981 0-3.897-3.188-7.085-7.439-7.085-2.126 0-4.605 1.063-5.668 2.834-5.668 7.794-16.296 9.919-24.444 4.251-3.188-2.126-5.668-5.314-6.731-9.211v0c-1.063-3.897-5.314-6.022-8.856-4.605-2.126 0.709-3.897 2.48-4.605 4.605-2.834 9.211-12.753 14.524-21.964 11.69-3.543-1.063-7.085-3.543-9.21-6.73-2.48-3.188-6.731-3.897-10.274-1.417-1.771 1.417-2.834 3.543-2.834 5.668 0.354 9.565-7.439 17.713-17.004 17.712-3.897 0-7.794-1.063-10.982-3.542-3.188-2.48-7.794-1.771-9.919 1.417-1.417 1.771-1.771 4.605-1.063 6.731 3.188 9.211-1.417 19.13-10.627 22.317-3.897 1.417-7.794 1.417-11.691 0-3.897-1.417-7.794 0.709-9.21 4.606-0.709 2.126-0.354 4.96 1.063 6.731 5.668 7.794 4.251 18.775-3.543 24.443-3.188 2.48-7.085 3.543-10.982 3.543-3.897 0-7.085 3.188-7.085 7.439 0 2.126 1.063 4.605 2.834 5.668 7.794 5.668 9.919 16.296 4.251 24.443-2.126 3.188-5.314 5.668-9.21 6.731-3.897 1.063-6.022 5.314-4.606 8.856 0.709 2.126 2.48 3.897 4.606 4.606 9.211 2.834 14.524 12.753 11.69 21.963-1.063 3.543-3.543 7.085-6.731 9.211-3.188 2.48-3.897 6.731-1.417 10.273 1.417 1.771 3.543 2.834 5.668 2.834 9.565-0.354 17.713 7.439 17.713 17.004 0 3.897-1.063 7.794-3.543 10.982-2.48 3.188-1.771 7.794 1.417 9.919 1.771 1.417 4.605 1.771 6.731 1.063 9.211-3.188 19.13 1.417 22.318 10.628 1.417 3.897 1.417 7.794 0 11.69-1.417 3.897 0.709 7.794 4.605 9.211 2.126 0.709 4.96 0.354 6.731-1.063 7.794-5.668 18.775-4.251 24.444 3.542 2.48 3.188 3.543 7.085 3.542 10.982 0 3.897 3.188 7.085 7.085 7.44 2.48 0 4.605-1.063 6.023-3.189 3.543-4.605 8.856-7.439 14.524-7.439z" fill="#374151" fill-rule="nonzero" stroke="none" stroke-width="1" stroke-linecap="butt" stroke-linejoin="miter" stroke-miterlimit="10" stroke-dasharray="" stroke-dashoffset="0" font-family="none" font-weight="none" font-size="none" text-anchor="none" style="mix-blend-mode: normal" data-fill-palette-color="tertiary"></path></g><g transform="matrix(1,0,0,1,56,98.02918611345218)"><svg viewBox="0 0 208 163.94162777309563" height="163.94162777309563" width="208"><g><svg viewBox="0 0 208 163.94162777309563" height="163.94162777309563" width="208"><g transform="matrix(1,0,0,1,0,101.32250297568882)"><svg viewBox="0 0 208 62.619124797406805" height="62.619124797406805" width="208"><g><svg viewBox="0 0 208 62.619124797406805" height="62.619124797406805" width="208"><g><svg viewBox="0 0 208 62.619124797406805" height="62.619124797406805" width="208"><g transform="matrix(1,0,0,1,0,0)"><svg width="208" viewBox="2.799999952316284 -36.150001525878906 123.39999389648438 37.150001525878906" height="62.619124797406805" data-palette-color="#374151"><path d="M23.65-6.45L23.65-6.45 23.65-2.25Q23.65-0.1 20.73 0.05 17.8 0.2 14.38 0.2 10.95 0.2 6.55-0.05L6.55-0.05Q5.1-0.15 4.23-1.05 3.35-1.95 3.2-3.1L3.2-3.1Q2.8-7.5 2.8-16.93 2.8-26.35 3.1-30.65 3.4-34.95 7.45-35L7.45-35Q12.1-35.1 17.4-35.1 22.7-35.1 28.88-34.95 35.05-34.8 38.95-30.3 42.85-25.8 42.85-20.4 42.85-15 39.4-11.5 35.95-8 29.3-8L29.3-8 25.4-8Q24.75-8 24.2-7.55 23.65-7.1 23.65-6.45ZM23.6-24.55L23.6-24.55 23.7-15.3Q23.7-14.35 24.75-14.35L24.75-14.35Q27.85-14.35 29.63-16.07 31.4-17.8 31.4-20.15 31.4-22.5 29.73-24.2 28.05-25.9 24.8-25.9L24.8-25.9Q23.6-25.9 23.6-24.55ZM63.2 1Q58.9 1 55.17 0.05 51.45-0.9 49.92-1.85 48.4-2.8 47.9-3.2L47.9-3.2Q46.6-4.25 46.6-6.1L46.6-6.1Q46.6-7.55 46.95-8.85L46.95-8.85Q47.6-11.3 49.3-11.3L49.3-11.3Q49.85-11.25 52.82-10.15 55.8-9.05 57.5-9.05L57.5-9.05Q60.05-9.05 60.05-11.05L60.05-11.05Q60.05-12.25 58.8-13.28 57.55-14.3 55.77-15.25 54-16.2 52.2-17.43 50.4-18.65 49.15-20.83 47.9-23 47.9-25.9L47.9-25.9Q47.9-30.7 52.6-33.43 57.3-36.15 64.75-36.15 72.2-36.15 76.57-34.63 80.95-33.1 80.95-30.4L80.95-30.4Q80.95-28.45 80.05-26.98 79.15-25.5 78.15-25.5L78.15-25.5Q77.8-25.5 75.82-26.28 73.85-27.05 72.25-27.05L72.25-27.05Q69.1-27.05 69.1-24.6L69.1-24.6Q69.1-23.4 70.6-22.4 72.1-21.4 74.22-20.48 76.35-19.55 78.5-18.4 80.65-17.25 82.15-15.25 83.65-13.25 83.65-10.4 83.65-7.55 81.82-5.2 80-2.85 77-1.55L77-1.55Q71.05 1 63.2 1L63.2 1ZM116.7-26.9L116.7-26.9Q112.2-26.9 110.37-24.58 108.55-22.25 108.55-17.2L108.55-17.2Q108.55-9.25 113.2-9.25L113.2-9.25Q114.15-9.25 114.45-9.3L114.45-9.3Q113.85-9.3 113.47-11.4 113.1-13.5 113.1-15.8 113.1-18.1 114.35-18.78 115.6-19.45 117.82-19.45 120.05-19.45 120.92-19.43 121.8-19.4 122.92-19.23 124.05-19.05 124.65-18.7L124.65-18.7Q126.05-17.9 126.05-16.3L126.05-16.3 126.05-9Q126.05-5.1 124.65-2.78 123.25-0.45 119.4-0.05L119.4-0.05Q114 0.5 102.9 0.5L102.9 0.5Q98.45 0.5 95.27-0.9 92.1-2.3 90.35-4.8L90.35-4.8Q87.15-9.45 87.15-16.63 87.15-23.8 91.75-29.4 96.35-35 104-35.4L104-35.4Q109.25-35.7 111.6-35.7L111.6-35.7Q120.15-35.7 123.75-34.65L123.75-34.65Q126.2-33.95 126.2-30.7L126.2-30.7Q126.2-26.35 123.65-26.35L123.65-26.35Q122.85-26.4 120.45-26.65 118.05-26.9 116.7-26.9Z" opacity="1" transform="matrix(1,0,0,1,0,0)" fill="#000000" class="undefined-text-0" data-fill-palette-color="primary" id="text-0"></path></svg></g></svg></g></svg></g></svg></g><g transform="matrix(1,0,0,1,60.730184764991904,0)"><svg viewBox="0 0 86.53963047001619 86.5396304700162" height="86.5396304700162" width="86.53963047001619"><g><svg></svg></g><g id="icon-0"><svg viewBox="0 0 86.53963047001619 86.5396304700162" height="86.5396304700162" width="86.53963047001619"><g><path xmlns="http://www.w3.org/2000/svg" d="M25.962 86.54c-14.338 0-25.962-11.624-25.962-25.962v-34.616c0-14.338 11.624-25.962 25.962-25.962h34.616c14.338 0 25.962 11.624 25.962 25.962v34.616c0 14.338-11.624 25.962-25.962 25.962z" fill="#000000" fill-rule="nonzero" stroke="none" stroke-width="1" stroke-linecap="butt" stroke-linejoin="miter" stroke-miterlimit="10" stroke-dasharray="" stroke-dashoffset="0" font-family="none" font-weight="none" font-size="none" text-anchor="none" style="mix-blend-mode: normal" data-fill-palette-color="accent"></path></g><g transform="matrix(1,0,0,1,23.345495235008094,23.343547695527576)"><svg viewBox="0 0 39.84864 39.852535078961054" height="39.852535078961054" width="39.84864"><g><svg xmlns="http://www.w3.org/2000/svg" xmlns:xlink="http://www.w3.org/1999/xlink" version="1.1" x="0" y="0" viewBox="0.49999934434890747 0.46375006437301636 23.006000518798828 23.008249282836914" enable-background="new 0 0 24 24" xml:space="preserve" height="39.852535078961054" width="39.84864" class="icon-a-0" data-fill-palette-color="quaternary" id="a-0"><path d="M23.506 6.075c0-0.341-0.136-0.669-0.377-0.91l-4.323-4.324c-0.503-0.503-1.317-0.503-1.82 0L13.13 4.695c-0.989-0.627-2.382-0.52-3.23 0.328l-8.647 8.648c-1.004 1.004-1.004 2.638 0 3.642l0.401 0.402c-0.597 0.61-0.929 1.415-0.929 2.272 0 0.87 0.339 1.688 0.954 2.304 0.616 0.616 1.434 0.955 2.305 0.955 0.857 0 1.661-0.331 2.273-0.93l0.401 0.402c0.486 0.485 1.133 0.754 1.822 0.754 0.687 0 1.333-0.269 1.82-0.754l8.647-8.647c0.487-0.488 0.754-1.134 0.754-1.823 0-0.509-0.148-0.996-0.423-1.412l3.851-3.851C23.37 6.744 23.506 6.417 23.506 6.075zM3.5 20.471c-0.129-0.129-0.201-0.302-0.201-0.483 0-0.171 0.061-0.329 0.173-0.455l0.966 0.966C4.177 20.732 3.748 20.72 3.5 20.471zM8.479 20.897L8.479 20.897l-5.406-5.406 8.648-8.648 0.54 0.539c0 0 0 0.001 0 0.002l4.325 4.323 0.54 0.541L8.479 20.897zM17.496 8.977l-2.503-2.503 2.902-2.901 2.502 2.503L17.496 8.977z" fill="#ffbe79" data-fill-palette-color="quaternary"></path></svg></g></svg></g></svg></g></svg></g><g></g></svg></g></svg></g></svg></g><defs></defs></svg><rect width="320" height="360" fill="none" stroke="none" visibility="hidden"></rect></g></svg></g></svg>